<mxfile host="Electron" agent="Mozilla/5.0 (Windows NT 10.0; Win64; x64) AppleWebKit/537.36 (KHTML, like Gecko) draw.io/26.0.4 Chrome/128.0.6613.186 Electron/32.2.5 Safari/537.36" version="26.0.4">
  <diagram name="Seite-1" id="t0i3gFRpEtpf_eHMqG2z">
    <mxGraphModel dx="1434" dy="836" grid="1" gridSize="10" guides="1" tooltips="1" connect="1" arrows="1" fold="1" page="1" pageScale="1" pageWidth="583" pageHeight="827" math="0" shadow="0">
      <root>
        <mxCell id="0" />
        <mxCell id="1" parent="0" />
        <mxCell id="th64qgsLVc2CtclvAoE8-1" value="Event Log" style="sketch=0;pointerEvents=1;shadow=0;dashed=0;html=1;strokeColor=none;fillColor=#434445;aspect=fixed;labelPosition=center;verticalLabelPosition=bottom;verticalAlign=top;align=center;outlineConnect=0;shape=mxgraph.vvd.log_files;fontFamily=Times New Roman;" parent="1" vertex="1">
          <mxGeometry x="90" y="140" width="40" height="50" as="geometry" />
        </mxCell>
        <mxCell id="th64qgsLVc2CtclvAoE8-2" value="Event Log" style="sketch=0;pointerEvents=1;shadow=0;dashed=0;html=1;strokeColor=none;fillColor=#434445;aspect=fixed;labelPosition=center;verticalLabelPosition=bottom;verticalAlign=top;align=center;outlineConnect=0;shape=mxgraph.vvd.log_files;fontFamily=Times New Roman;" parent="1" vertex="1">
          <mxGeometry x="457.06" y="260" width="40" height="50" as="geometry" />
        </mxCell>
        <mxCell id="th64qgsLVc2CtclvAoE8-3" value="Event Log" style="sketch=0;pointerEvents=1;shadow=0;dashed=0;html=1;strokeColor=none;fillColor=#434445;aspect=fixed;labelPosition=center;verticalLabelPosition=bottom;verticalAlign=top;align=center;outlineConnect=0;shape=mxgraph.vvd.log_files;fontFamily=Times New Roman;" parent="1" vertex="1">
          <mxGeometry x="90" y="363" width="40" height="50" as="geometry" />
        </mxCell>
        <mxCell id="th64qgsLVc2CtclvAoE8-4" value="Process Model" style="shape=image;verticalLabelPosition=bottom;labelBackgroundColor=default;verticalAlign=top;aspect=fixed;imageAspect=0;image=data:image/png,iVBORw0KGgoAAAANSUhEUgAAAWMAAACrCAAAAACWZaJQAAAAAXNCSVQI5gpbmQAAAAlwSFlzAAAH0AAAB9ABuYvnnwAAF3ZJREFUeNrtnXd8FEX/xz97LZ0EQkIzoQSiJAgEpUlHkKYC0kNvyiMgDyBVQGN5KFKUANKlSJMgQgQR+BGKyIM0ow8ldKQl0gkhpNx9f39cruX2tuRmLxtemb9ys7szn31nd3bmO9/5Dqg4KZ1QjKCYcTHj4lTMuJixbLEAdC/0v0hEJ8fV8fOKHHu3mLECjAGUPG/9M+xaMWPWjIlyjtZCL6KY2acyniZWQPdixuwZE/2BMpaMgwgqZqwE42zoLBnPbH8WM2bJONn2HP+GCsWMFWiPj8WgZ95vYzMMVVVvh4iI0sOBIt+vCDyX93sMQm+rqrdDREQjShR1xtryfSw3E4fA4+rq7RAR/aaJL9qM7X/Fwe+w+no7WVH1jM8N42nwSVJhb+dj3Sl6XhhPgdcvKuztnDaMpeeF8VTot6uwt2NsWPHJc8MYlnRHVb2d+UikYsaK9nau+XehIs5Y9f/59iVuFjP21NvlQBkKv0S2Ki8v71UGTKozXTmwf/+BKyaW8tyw+auIsVPVBUqPNw+pzZmL4moP2fyYlTw3bP7ON+XptsJaX8X+315xl/HBrjoAqNC0WbOmFQBA1/UgG3lu2PxVxJhfjpz0vzqAvvmMk3mNhOnkjOZ6oM7/2A3PC2Tzf44Y3+7NIXTqLcfMW1NDwfW+zYpxQW3+xh0LRrdp3rx5m9ELdhid6ygqjJNC4P15pnN+5ufeCElixLhANv+cBR297Jp2r44Lcoom44V6tPiH/9A/LaBfyEReQWz+tyeXBFCj38yEpKSkhJn9agAoOfl2EWT8GbgJua4O5k7g8BkLefJt/jlzAoDw+HS7rPT4cCBgTk5RYxwPzSah45s0iHdfnnybf3IZoK+zEftwX6BMctFinMhxK4TPWMFxie7Kk2/z3+yHiJ28R3ZGwG9zUWJ8Ixgzxc6ZieAb7smTb/Ofz+GdTBfHMt8BN5+Psf0MK6uhr/uMTa3QXnTcbGqPViZ35Mm3+X8J3TyBw/N0+NIFY8sMK5uhLwvGGxCaKn5Waig2uCFPvs1/Haf5TvCE7zTcOj7GthlWFkNfR6w81hJJn+5ILJdy3nJE5hRcnmx79HEDxDqMC2E4zsvY3p9MFYxXopokdjnVsNJzjDNewgeiJ32AlzL4Gdv8yaAG63JdrJF24hrU9ZyqUaiRKXpSZg2M4meczPQ5djelIDBT2pmZgUjxlKrLBu5PCaf9yRku87XHdv5kamD8MQZKPXUgPvaUqgHoJ+m8fhjA36+w+pOpgXFj7JB66g409pCoa5z+kqQTL+m5a86M7fzJ1MA4x4+TPP9zl/PL8Yyq6dZX3WY02TOs2cCPlmfly+6J6XztMQMTDruUjAjpJ0cg2TOqXka+kXvuqDzzZugyR/txIl5WPeMf8Lb0k9/GDx76DpfKdsh40sFmPy533f5IdimkqJ3xCumfPKKBWOERUavRxeH3vTr2869NHYywXbBaQcav8CaZhXyJsdJPHovBHtE3AjPyjTUcUpz9sRkYAQHbgpsmC/AmGQVkntoYVwuTpF8wEdzkXA/oa4y99j8fBDgWoTlrd3AvGivK+LhTklac6dru+BGtwwEgHMOk1zgMGrRMVV5fJM7Z/5yV//80x+7gOUQq2OLy6RW/h6cf96htJ/cj9JBeYw9MK4cKhxTVR0RUGmkOjU5+xvZOGmkorTrGdKqdndpWSWggvcYGSLrVDPo5JmUZmzTIcuzJ5UuV7A5mQa8+xkRJ9a1qjz/kvLOlVpjtzT2knPEcujxSTF/Gvs/aBurxUJDx63YHHyJAjYzJtKWa9aV7ESekVngCLxIR/RiEyD+V0Je6ZXQ9cxcYVwQZt7A7eAUVVcmY9oWZxZ4nGoAvpFb4BQYQEdHF2vBdzVaf6cyy/lUtCBvXxjH7g33zM55gd/AYaquRcdY4DWoCwDAi2oFoqRVGW8xHTwcB72Yy1HejrD3ChB6OY52T+Rn/4DCI6qFCxmdioIu7BwC3iCg7BCel1XcSIdame4UPXrnMUF/WWlvnoXLu7HwdyhaOiBvlOPQnZzuXKewfpzhj0wIfVD1CVB74iIiIRkn1V+2OUXa9kwiUTGSq70DnPIRz6QBqOhw6rLNHHHTV/lhNHMhXpqh/nNKMU9sDg9LNz4b5433DhzslpbpTnI+9h8WDjmKDPrn6Hr5uhvKQngXirGNPKNAO2mb7I2cR+MyhTAn+cQozTgxFcELeO2YZLY1BIwkdXlMjjHHMmKkTHvTJ1HchCqUAYBQRDcZUx4N/lLcQrnfE4cBUDLa3bUryj1OUccYwDq3yHsZ54ZaP1h1/fC1e29fwzz+lvF940CdP375gvHw5BMAlItqH8vl67ekbu/kBIQ1XOz4O2eWxz46xNP84JRkffwlecy2fgJ3fWvO3wuusWGVnvbDVKVN40CdL3zd6vP2YOgGdiYiMUTw+jMbTzlXFI8poYyzRP045xsbpBtSw/TPv2QkegrCrwnVdDcMQnmzBQZ8MfTnDgQlGoi+BA3n/9tAMCQgyQrHVNmcq1T9OMcbXmoEb5ULB08aokiZUVVoVNH7Ke0Rg0Cdd3/1W8F5LRPQb8uzLpjoYIQHBCNQxWRlL9o9TivH6IJTb5fqTXgeVBdqr5Mqo89DFMdeDPsn6zlZDWfOXLMtnraUzbuB2ihLYyRlOkoWxdP84ZRg/7AN0EvKC+qcKfFz6/G33QZV/XBtLXQ36pOrbFYSYv/P+7mk1uM1CyE0RADdDMIssjGX4xynC+GAl+C0VLiyzH9CRt1G+2hHoJzhwdjHok6jvKx26PrE2SrauYQtUFvZ4vlEZLUwWxnL84xRgnD1Zi3rnRYuL94F2mFOrnDZMCx+xdQr8gz5J+rKGgpvG2zVJb4CX7glUeu8lNDD3g0Hy/OPYM06pC+0UKTbiW70AzdD1T2w5T9YP1QC9bole6jjoyzRJ1nenGXxdrUR5EIWQ/S6r3B+CqAdkYSzLP4454yV+qCR1duhkHwPANekXt3bdurVx/ZpwgKGPJIuRw6Dv8HdS9f1VBRVcN5EP2oEbncVvQxrNod0DsjKW5R/HmPE/HYG+j6SXmbmotd5mGdC3XpQp9Uq7Qd+CKKM0fYkBqCf0khhHAmE/8Rz4KQwYaTWoQaZ/HFvGP5dDSbkrDIyHl0/qHRvbe9Lyw7LMgrZB3yAkSNI3S4PYp8KFHqwBRC9zPOnpsmight1aecj0j2PJOPMDDs09F8DYOuiLQYxJXN+zftB8IWqMyo3zA7w7zD9otunkHJzfwRvwi7O3+EGmfxxDxn9EwzDDSB5M5kHfM4AvslI+famvwX+rlEKz1zUEAARHRkYGAwAarnP8hEOmfxwzxsY5Xqh+gjybLtaG7+rjABqI6TsVjop/SC32/uruNbUAAG3N7qvvOxUq0z9OpA+bIZXxjdfB/SuDPJ2eDgKaAsAeYX1b/NAoTV7RF1JSUi7wP2wy/eOE6/lP+VVGSYw3l0LoT1QYaYUPAKCZkD7TZxwGPGNWJWT6xwmXdscHdX8VZ/x4INAhtVAQ3/8k78YOudb3tCe0sxnWCZn+cSLFDQHQ46oI498i4LvQVBiE0yZa76uNS30366IE03cM8vzjShw5c0MoFlUyAGBKugDjnE90qHOmMAjfHO1rd2O/u9D3e3lEnGZaL7Sy/OPM7UdgWI3X2nYfMiZu3orNvxw5c+Ox7aHMczVYZXTF+GJDaMZnFUo7cW7liEa2G+vIr2+DD5oz3tkFAbL843T1q1fwd3aMtlEflJdT91cXjAMQlkSFl4xn141tWdKlazXA4b1sxnWiojz/OCKi3AfX/jq8c+PS2dP+PbBL6/rVK/hzPA7pPfjvAT3uU2En0+WEj9qV4denm8+8Osj0j3PxdFip25yHK/HfQ9hlUkXK2cGv7132VUGmf5xIcRmWy9r9bHLxHJfepwLAuweXctFW6I+yZyzTP06kuDjzVSPOuexXdIB+QeECNiYNE2iPEfGIOWOZ/nHCpV0HgCpzHwr0j40TOQx1r19hF5LnxJiaPl5V/yXdeGf6dWQ58625aI9fsexBwZCxTP844dL6AC1/NIqM89b7onGqu4wdt3gLlOY+azo6Jsx6a+/x6zsfUJBQI8J6ZfrHCab/+g39U4JN6HgYwk64xdgakqdG3KH7OSnt0VRSKzzQYPf47HGhbw1K3GDNWJ5/nGDaki7NtpnaCL4b3GPssMVbGrylXflkc08r4xxX+jrjHdaM5fnHyUbBm5c1BNwko3uM7bZ4u4uyki/O3Gpe1zHIpb7rAdjOmLE8/zg2jInidXjzkVuMrSF5TFe6ygi3aRoKAwDsdK3va4SnM2Ysyz+OFWPaVxrVzxecsS0kD4AycyQrMw2D72YAyHKtL/fVfO7i7jOW5R/HjDFdfhkld7nTr8gLyQNA00jquMb0Pnz2UjOgr5C+E1rdZcaM5fjHsWNM6e9AO6egjO1C8hhvrwjRbJOGeCS8dxMtArYJ6nvPea7eXcYy/OMYMibTx5yIN6DUgg9IXMT3b3jvIqI0IFNQ33VvzZ+MGcvwj2PJmGiLP+rdZMD4GQxSLhwLL/MqyVY9RfSNMq9JYMlYun8cW8aUXBnl/+t+wb+Yja4iaTwMea4kyxJE9N32446xZizZP44xY7rTAt6rCl5w09UXn2Vfnh/kYIJ1kSbBYGm172WJ6RvPcCBi8ymR5h/HmjFlDwdG5xa0YMugraV4D/8j6H+Qri9Vr7vJnLFE/zjmjImWGvDG/QIW/PvIaB99ufbfiT8D06BLkKOva4G3ERBiLMk/TgHGdKgMqrGdCXZOcdB9L0vfHlTMVYCxFP84JRjT33VQQp6J4O7RjevXbzgo+XX+HNoN8vSZqkoP9CmLMYn6xynCmDJ6SvFDzUvXl3QuZWmH/V6fJcVVYzq06+Tqm4FYpRgTEdHWcgNc+Mcpw5hM0zXoIcUyZfypNQdAH9O9V68eDUIAoNZKsXHMLGjXyNaXgtK5CjLewGR6Vt4608QSiBGfMvotEvDrstTqsnt/48BQIHSR4DdvDjSrCqAvAkcUY2ycDKC3pxnTmWoIFenAXO8MVJqdr6ueteYVoLZAiIuvoFlREH0jME0pxo/fBoBOHmdM99vAsESowL3BCJjLF+dhSxj0i1xdFc9xSwukbwfqKcT4YjQAoLXnGVPuWOB9192Yb3Ro68Ksn/Uh0J//yoUct7hg+jI0hmxFGO/N+2C/VgiMiVZ7o7mrZdNfgJviutld54NufJ+oxRy3sKD6InBaCcbxlk5RrUJhTEfLoxL/Av+F0AgGkD7hi8HOvb9lnOuoEKL63sJm9oyzhlpnbasWDmO6WR9+1jHvXZs9dSfHLRO+8lc/59HvCg3mFVzfBMeVGkwYpzWxW9FUSIwpsz+4aXltwnZriMLUUPFwhbs5XT4z6SoN5rih71v0Yc545bL12/Ye2afVAAgsLMZEc7XoZH6AJ5Wz+CV1QCtxs884VHpi/3uNVnB+TFTfj+ioUN9tFjo2QgH3p2XCmH4piRqXiIia49u8AQpKii/up6yX8Yn9Z1ArvC5WVN9utFKIcTS2pwJ4VniM6UIUgv+PKAd42UREZKqNr6RcdwiBtmUGG7T43D19h1n0rvgYX0eQkU4C9wqRMT16C7r5dALALiKizQiTNrXaFhMtf36vE/tiieo76cql3V3GG9CeiDZxfzNg7LxrgdTw9sbJHAZ/ZRkLtYZEl+UjCM0bByboRUfCovoOKfUcv29uxKacZcDYnX0VNvqiNAAkE93WellsrDwRCRyyquNnIiLaqs+LiOqOvgRGk9NO91wLh4iITA/dLvo4b5J8+WHz6qP+RF9Z7pUnIkG+rM/Rl4hom8HWaBRc30I5ezrIYVwCD0gF6dpYy4N1kzrl7VLIE5Egf9ZphBFRogHjGGiYxmivuPyMM6S68iqajveyoZtIFcwhHXgiEjhlGQNxm3Z6sfEJ7CR1B0qZjC9L8gZRNhlnetuju4QgExFvRALnrJZI3OWNfzPRUQYXFWH8O15RwXNsOr18cJSF3GjzFiE8EQl4soZjuA9GMlnwfhGhpAjjP1GDVJLu/zy1FQCURTvz+NMpIgFP1hTo8T6bmAKrWUxU8DG+hjBSUcpNXty/rHniiyciAU/WHOA9RmEb3kS8MowfIYBUllaZ48/xRCTgyfoa9RkhTtPr/1GGscmLu6cyxtvwFi/j1/myPmE10UlfydmBUl7/uCl2qozxQXOEHZ6IBDxZozCP0Wf3RSQoxXic5zZplvx9L0fEG5GAJ+tNbGJT6yaUzVKKcQKaq4yxqRSuE29EAp6sMrjEpNLc6lhKSjF+6KO5qjLIb5gDPPBEJHDKuoZgVh23iGzFGFMsPlUZ4zjzOm2eiAROWYsYfajulWM0juZnvBuVTOpifBZBmUS8EQnyZzXCOiZVxqKpUUHGpggsUdmD/ArM/tk8EQkcs65yfk9YVPgD/C6Sgozpe5R7oi7GC8zBdHkjEjhkDZKz47frdDcELGPF8DA21XeY3lVBynwB1oUGPBEJrFkpOj2Lx+9JbTQzKcuYDsFwTF2Ql6CylEnTlkyiWhk7IZJpfDTe+bVRqJauKsbGmlLoLYH/LQaV/QulUkhxxs9qy9k52xPpL2+IxghI8cJGBlVNgj6JlGdM532ZmVaYWWh8RZzsr4Wb50vdTOOgTyBPMKbtOtHdhTw8oH4X/oK7+KVVRBP344KbRsCwlTzDmFZw3BZ1Nck94C+g6GQ4Ytx3V7jbFl7byFOMaTo089UFuS+4ma4GXyu9EOW+Rf1oOEoeIs8xplkcJqtrUD1bi2jeABAprYHB7jtBLjCg4XXyJGNarcfb6urCHSoPdHD66F/swyHgW7cLT48FRmWTZxnTIX9U3K8qyM8+9QFq/eeE7f1KXdAF0Ax2P/L22SgEbFJGtaCP34X60EzIUhXl1LiyAEJaDJk5e/as4W0jAfgPP+d+f2KuAdFnqRAYU860worPL/Dt2/ZuGZs9s0SPDTnul3m4LtBbMUOYmK/qbxHwWaAyezLR1V8WjRs79sN525lMLF2P5VBms3JqRf2BHw8EWt2k5zc9/dQPPlOVtOZK8LneEgxtv8vPKWHTporguis7gynFrz1tpAGG4befR8RHo4GYAwpXIm3twJX+WvhNuv+cAc7d0hgIXar4Fn5S12ec7syh5PSM54hw+tdVAJ+PnylfE6S/Vq8DwR9eeE4I/z0uCKga75GJS8g498irANcqIbvoE/69lx5outVDG31CnrbBfkC5KVeLNOBHi98A9LGem7KEzPMfxEcD2jcTc4so4Mdr2uuBoPF/e7BOyL/kUG8voMIH+4oe5swt3XwAXfs1njUnoiAX3fmyGoDSA7dnFiHAObv6BwKaZt/c8XTNKNhlpqMTXwTg33XdwyIB+MH6nnoAr86+XgiVo+CXnvniVQ7QtVl1SeUtxN7xMRoA1T89XzgC4NbVf89voQMQ1mdZijr5mpJnt/EF4N1m9slCEwF3C0j/trcXAJTv+c0ZddlATWeW9w0EwMWM31OoHw6wuJm/FnQrAwBB3eKTjKrgey1hfIsSAPDCgPVphS0GzB6axb3KA4C+Zr+5+wrTenT350/fMk+UhHf99LQa/uFgWdj5ZbHVOQDgKnb85Mernm46spI3xfWJAACUbjstMZVUksC6wIz/Lh7WwA8AoGs88PONxx574C5S9y8e3a6yxhx2usmYDZdU9WWAIqXmnt0w/o3QvGnN4PqxU1f/qshTlXMhae1/BjTwMVekfanTxDXJqpt8VIixOZ3eu2T8O7Us+79z1VvGjpm1Zvdfd9ym8PjM7pWfvdehVrBlX+uSDQfM+PGcWg2CULwG0+1fV03tVa+UXZiJF159c8jE6QvX/rjvWMotKSZc472Lx/d8v2TGhHe7tX41wjb1r63cpNekJQdSSdUJHqvp/l971s4aE9syqlS+XdW5oPDoJs1btenwduduPfv0H/zu+yNHjxjav+c7HVo3rR8TVTUsNCjfclK/yJb9Ji3cdiLNREUh/T93bb3kIFECKwAAAABJRU5ErkJggg==;fontFamily=Times New Roman;" parent="1" vertex="1">
          <mxGeometry x="424.12" y="140" width="105.88" height="51" as="geometry" />
        </mxCell>
        <mxCell id="th64qgsLVc2CtclvAoE8-5" value="Process Model" style="shape=image;verticalLabelPosition=bottom;labelBackgroundColor=default;verticalAlign=top;aspect=fixed;imageAspect=0;image=data:image/png,iVBORw0KGgoAAAANSUhEUgAAAWMAAACrCAAAAACWZaJQAAAAAXNCSVQI5gpbmQAAAAlwSFlzAAAH0AAAB9ABuYvnnwAAF3ZJREFUeNrtnXd8FEX/xz97LZ0EQkIzoQSiJAgEpUlHkKYC0kNvyiMgDyBVQGN5KFKUANKlSJMgQgQR+BGKyIM0ow8ldKQl0gkhpNx9f39cruX2tuRmLxtemb9ys7szn31nd3bmO9/5Dqg4KZ1QjKCYcTHj4lTMuJixbLEAdC/0v0hEJ8fV8fOKHHu3mLECjAGUPG/9M+xaMWPWjIlyjtZCL6KY2acyniZWQPdixuwZE/2BMpaMgwgqZqwE42zoLBnPbH8WM2bJONn2HP+GCsWMFWiPj8WgZ95vYzMMVVVvh4iI0sOBIt+vCDyX93sMQm+rqrdDREQjShR1xtryfSw3E4fA4+rq7RAR/aaJL9qM7X/Fwe+w+no7WVH1jM8N42nwSVJhb+dj3Sl6XhhPgdcvKuztnDaMpeeF8VTot6uwt2NsWPHJc8MYlnRHVb2d+UikYsaK9nau+XehIs5Y9f/59iVuFjP21NvlQBkKv0S2Ki8v71UGTKozXTmwf/+BKyaW8tyw+auIsVPVBUqPNw+pzZmL4moP2fyYlTw3bP7ON+XptsJaX8X+315xl/HBrjoAqNC0WbOmFQBA1/UgG3lu2PxVxJhfjpz0vzqAvvmMk3mNhOnkjOZ6oM7/2A3PC2Tzf44Y3+7NIXTqLcfMW1NDwfW+zYpxQW3+xh0LRrdp3rx5m9ELdhid6ygqjJNC4P15pnN+5ufeCElixLhANv+cBR297Jp2r44Lcoom44V6tPiH/9A/LaBfyEReQWz+tyeXBFCj38yEpKSkhJn9agAoOfl2EWT8GbgJua4O5k7g8BkLefJt/jlzAoDw+HS7rPT4cCBgTk5RYxwPzSah45s0iHdfnnybf3IZoK+zEftwX6BMctFinMhxK4TPWMFxie7Kk2/z3+yHiJ28R3ZGwG9zUWJ8Ixgzxc6ZieAb7smTb/Ofz+GdTBfHMt8BN5+Psf0MK6uhr/uMTa3QXnTcbGqPViZ35Mm3+X8J3TyBw/N0+NIFY8sMK5uhLwvGGxCaKn5Waig2uCFPvs1/Haf5TvCE7zTcOj7GthlWFkNfR6w81hJJn+5ILJdy3nJE5hRcnmx79HEDxDqMC2E4zsvY3p9MFYxXopokdjnVsNJzjDNewgeiJ32AlzL4Gdv8yaAG63JdrJF24hrU9ZyqUaiRKXpSZg2M4meczPQ5djelIDBT2pmZgUjxlKrLBu5PCaf9yRku87XHdv5kamD8MQZKPXUgPvaUqgHoJ+m8fhjA36+w+pOpgXFj7JB66g409pCoa5z+kqQTL+m5a86M7fzJ1MA4x4+TPP9zl/PL8Yyq6dZX3WY02TOs2cCPlmfly+6J6XztMQMTDruUjAjpJ0cg2TOqXka+kXvuqDzzZugyR/txIl5WPeMf8Lb0k9/GDx76DpfKdsh40sFmPy533f5IdimkqJ3xCumfPKKBWOERUavRxeH3vTr2869NHYywXbBaQcav8CaZhXyJsdJPHovBHtE3AjPyjTUcUpz9sRkYAQHbgpsmC/AmGQVkntoYVwuTpF8wEdzkXA/oa4y99j8fBDgWoTlrd3AvGivK+LhTklac6dru+BGtwwEgHMOk1zgMGrRMVV5fJM7Z/5yV//80x+7gOUQq2OLy6RW/h6cf96htJ/cj9JBeYw9MK4cKhxTVR0RUGmkOjU5+xvZOGmkorTrGdKqdndpWSWggvcYGSLrVDPo5JmUZmzTIcuzJ5UuV7A5mQa8+xkRJ9a1qjz/kvLOlVpjtzT2knPEcujxSTF/Gvs/aBurxUJDx63YHHyJAjYzJtKWa9aV7ESekVngCLxIR/RiEyD+V0Je6ZXQ9cxcYVwQZt7A7eAUVVcmY9oWZxZ4nGoAvpFb4BQYQEdHF2vBdzVaf6cyy/lUtCBvXxjH7g33zM55gd/AYaquRcdY4DWoCwDAi2oFoqRVGW8xHTwcB72Yy1HejrD3ChB6OY52T+Rn/4DCI6qFCxmdioIu7BwC3iCg7BCel1XcSIdame4UPXrnMUF/WWlvnoXLu7HwdyhaOiBvlOPQnZzuXKewfpzhj0wIfVD1CVB74iIiIRkn1V+2OUXa9kwiUTGSq70DnPIRz6QBqOhw6rLNHHHTV/lhNHMhXpqh/nNKMU9sDg9LNz4b5433DhzslpbpTnI+9h8WDjmKDPrn6Hr5uhvKQngXirGNPKNAO2mb7I2cR+MyhTAn+cQozTgxFcELeO2YZLY1BIwkdXlMjjHHMmKkTHvTJ1HchCqUAYBQRDcZUx4N/lLcQrnfE4cBUDLa3bUryj1OUccYwDq3yHsZ54ZaP1h1/fC1e29fwzz+lvF940CdP375gvHw5BMAlItqH8vl67ekbu/kBIQ1XOz4O2eWxz46xNP84JRkffwlecy2fgJ3fWvO3wuusWGVnvbDVKVN40CdL3zd6vP2YOgGdiYiMUTw+jMbTzlXFI8poYyzRP045xsbpBtSw/TPv2QkegrCrwnVdDcMQnmzBQZ8MfTnDgQlGoi+BA3n/9tAMCQgyQrHVNmcq1T9OMcbXmoEb5ULB08aokiZUVVoVNH7Ke0Rg0Cdd3/1W8F5LRPQb8uzLpjoYIQHBCNQxWRlL9o9TivH6IJTb5fqTXgeVBdqr5Mqo89DFMdeDPsn6zlZDWfOXLMtnraUzbuB2ihLYyRlOkoWxdP84ZRg/7AN0EvKC+qcKfFz6/G33QZV/XBtLXQ36pOrbFYSYv/P+7mk1uM1CyE0RADdDMIssjGX4xynC+GAl+C0VLiyzH9CRt1G+2hHoJzhwdjHok6jvKx26PrE2SrauYQtUFvZ4vlEZLUwWxnL84xRgnD1Zi3rnRYuL94F2mFOrnDZMCx+xdQr8gz5J+rKGgpvG2zVJb4CX7glUeu8lNDD3g0Hy/OPYM06pC+0UKTbiW70AzdD1T2w5T9YP1QC9bole6jjoyzRJ1nenGXxdrUR5EIWQ/S6r3B+CqAdkYSzLP4454yV+qCR1duhkHwPANekXt3bdurVx/ZpwgKGPJIuRw6Dv8HdS9f1VBRVcN5EP2oEbncVvQxrNod0DsjKW5R/HmPE/HYG+j6SXmbmotd5mGdC3XpQp9Uq7Qd+CKKM0fYkBqCf0khhHAmE/8Rz4KQwYaTWoQaZ/HFvGP5dDSbkrDIyHl0/qHRvbe9Lyw7LMgrZB3yAkSNI3S4PYp8KFHqwBRC9zPOnpsmight1aecj0j2PJOPMDDs09F8DYOuiLQYxJXN+zftB8IWqMyo3zA7w7zD9otunkHJzfwRvwi7O3+EGmfxxDxn9EwzDDSB5M5kHfM4AvslI+famvwX+rlEKz1zUEAARHRkYGAwAarnP8hEOmfxwzxsY5Xqh+gjybLtaG7+rjABqI6TsVjop/SC32/uruNbUAAG3N7qvvOxUq0z9OpA+bIZXxjdfB/SuDPJ2eDgKaAsAeYX1b/NAoTV7RF1JSUi7wP2wy/eOE6/lP+VVGSYw3l0LoT1QYaYUPAKCZkD7TZxwGPGNWJWT6xwmXdscHdX8VZ/x4INAhtVAQ3/8k78YOudb3tCe0sxnWCZn+cSLFDQHQ46oI498i4LvQVBiE0yZa76uNS30366IE03cM8vzjShw5c0MoFlUyAGBKugDjnE90qHOmMAjfHO1rd2O/u9D3e3lEnGZaL7Sy/OPM7UdgWI3X2nYfMiZu3orNvxw5c+Ox7aHMczVYZXTF+GJDaMZnFUo7cW7liEa2G+vIr2+DD5oz3tkFAbL843T1q1fwd3aMtlEflJdT91cXjAMQlkSFl4xn141tWdKlazXA4b1sxnWiojz/OCKi3AfX/jq8c+PS2dP+PbBL6/rVK/hzPA7pPfjvAT3uU2En0+WEj9qV4denm8+8Osj0j3PxdFip25yHK/HfQ9hlUkXK2cGv7132VUGmf5xIcRmWy9r9bHLxHJfepwLAuweXctFW6I+yZyzTP06kuDjzVSPOuexXdIB+QeECNiYNE2iPEfGIOWOZ/nHCpV0HgCpzHwr0j40TOQx1r19hF5LnxJiaPl5V/yXdeGf6dWQ58625aI9fsexBwZCxTP844dL6AC1/NIqM89b7onGqu4wdt3gLlOY+azo6Jsx6a+/x6zsfUJBQI8J6ZfrHCab/+g39U4JN6HgYwk64xdgakqdG3KH7OSnt0VRSKzzQYPf47HGhbw1K3GDNWJ5/nGDaki7NtpnaCL4b3GPssMVbGrylXflkc08r4xxX+jrjHdaM5fnHyUbBm5c1BNwko3uM7bZ4u4uyki/O3Gpe1zHIpb7rAdjOmLE8/zg2jInidXjzkVuMrSF5TFe6ygi3aRoKAwDsdK3va4SnM2Ysyz+OFWPaVxrVzxecsS0kD4AycyQrMw2D72YAyHKtL/fVfO7i7jOW5R/HjDFdfhkld7nTr8gLyQNA00jquMb0Pnz2UjOgr5C+E1rdZcaM5fjHsWNM6e9AO6egjO1C8hhvrwjRbJOGeCS8dxMtArYJ6nvPea7eXcYy/OMYMibTx5yIN6DUgg9IXMT3b3jvIqI0IFNQ33VvzZ+MGcvwj2PJmGiLP+rdZMD4GQxSLhwLL/MqyVY9RfSNMq9JYMlYun8cW8aUXBnl/+t+wb+Yja4iaTwMea4kyxJE9N32446xZizZP44xY7rTAt6rCl5w09UXn2Vfnh/kYIJ1kSbBYGm172WJ6RvPcCBi8ymR5h/HmjFlDwdG5xa0YMugraV4D/8j6H+Qri9Vr7vJnLFE/zjmjImWGvDG/QIW/PvIaB99ufbfiT8D06BLkKOva4G3ERBiLMk/TgHGdKgMqrGdCXZOcdB9L0vfHlTMVYCxFP84JRjT33VQQp6J4O7RjevXbzgo+XX+HNoN8vSZqkoP9CmLMYn6xynCmDJ6SvFDzUvXl3QuZWmH/V6fJcVVYzq06+Tqm4FYpRgTEdHWcgNc+Mcpw5hM0zXoIcUyZfypNQdAH9O9V68eDUIAoNZKsXHMLGjXyNaXgtK5CjLewGR6Vt4608QSiBGfMvotEvDrstTqsnt/48BQIHSR4DdvDjSrCqAvAkcUY2ycDKC3pxnTmWoIFenAXO8MVJqdr6ueteYVoLZAiIuvoFlREH0jME0pxo/fBoBOHmdM99vAsESowL3BCJjLF+dhSxj0i1xdFc9xSwukbwfqKcT4YjQAoLXnGVPuWOB9192Yb3Ro68Ksn/Uh0J//yoUct7hg+jI0hmxFGO/N+2C/VgiMiVZ7o7mrZdNfgJviutld54NufJ+oxRy3sKD6InBaCcbxlk5RrUJhTEfLoxL/Av+F0AgGkD7hi8HOvb9lnOuoEKL63sJm9oyzhlpnbasWDmO6WR9+1jHvXZs9dSfHLRO+8lc/59HvCg3mFVzfBMeVGkwYpzWxW9FUSIwpsz+4aXltwnZriMLUUPFwhbs5XT4z6SoN5rih71v0Yc545bL12/Ye2afVAAgsLMZEc7XoZH6AJ5Wz+CV1QCtxs884VHpi/3uNVnB+TFTfj+ioUN9tFjo2QgH3p2XCmH4piRqXiIia49u8AQpKii/up6yX8Yn9Z1ArvC5WVN9utFKIcTS2pwJ4VniM6UIUgv+PKAd42UREZKqNr6RcdwiBtmUGG7T43D19h1n0rvgYX0eQkU4C9wqRMT16C7r5dALALiKizQiTNrXaFhMtf36vE/tiieo76cql3V3GG9CeiDZxfzNg7LxrgdTw9sbJHAZ/ZRkLtYZEl+UjCM0bByboRUfCovoOKfUcv29uxKacZcDYnX0VNvqiNAAkE93WellsrDwRCRyyquNnIiLaqs+LiOqOvgRGk9NO91wLh4iITA/dLvo4b5J8+WHz6qP+RF9Z7pUnIkG+rM/Rl4hom8HWaBRc30I5ezrIYVwCD0gF6dpYy4N1kzrl7VLIE5Egf9ZphBFRogHjGGiYxmivuPyMM6S68iqajveyoZtIFcwhHXgiEjhlGQNxm3Z6sfEJ7CR1B0qZjC9L8gZRNhlnetuju4QgExFvRALnrJZI3OWNfzPRUQYXFWH8O15RwXNsOr18cJSF3GjzFiE8EQl4soZjuA9GMlnwfhGhpAjjP1GDVJLu/zy1FQCURTvz+NMpIgFP1hTo8T6bmAKrWUxU8DG+hjBSUcpNXty/rHniiyciAU/WHOA9RmEb3kS8MowfIYBUllaZ48/xRCTgyfoa9RkhTtPr/1GGscmLu6cyxtvwFi/j1/myPmE10UlfydmBUl7/uCl2qozxQXOEHZ6IBDxZozCP0Wf3RSQoxXic5zZplvx9L0fEG5GAJ+tNbGJT6yaUzVKKcQKaq4yxqRSuE29EAp6sMrjEpNLc6lhKSjF+6KO5qjLIb5gDPPBEJHDKuoZgVh23iGzFGFMsPlUZ4zjzOm2eiAROWYsYfajulWM0juZnvBuVTOpifBZBmUS8EQnyZzXCOiZVxqKpUUHGpggsUdmD/ArM/tk8EQkcs65yfk9YVPgD/C6Sgozpe5R7oi7GC8zBdHkjEjhkDZKz47frdDcELGPF8DA21XeY3lVBynwB1oUGPBEJrFkpOj2Lx+9JbTQzKcuYDsFwTF2Ql6CylEnTlkyiWhk7IZJpfDTe+bVRqJauKsbGmlLoLYH/LQaV/QulUkhxxs9qy9k52xPpL2+IxghI8cJGBlVNgj6JlGdM532ZmVaYWWh8RZzsr4Wb50vdTOOgTyBPMKbtOtHdhTw8oH4X/oK7+KVVRBP344KbRsCwlTzDmFZw3BZ1Nck94C+g6GQ4Ytx3V7jbFl7byFOMaTo089UFuS+4ma4GXyu9EOW+Rf1oOEoeIs8xplkcJqtrUD1bi2jeABAprYHB7jtBLjCg4XXyJGNarcfb6urCHSoPdHD66F/swyHgW7cLT48FRmWTZxnTIX9U3K8qyM8+9QFq/eeE7f1KXdAF0Ax2P/L22SgEbFJGtaCP34X60EzIUhXl1LiyAEJaDJk5e/as4W0jAfgPP+d+f2KuAdFnqRAYU860worPL/Dt2/ZuGZs9s0SPDTnul3m4LtBbMUOYmK/qbxHwWaAyezLR1V8WjRs79sN525lMLF2P5VBms3JqRf2BHw8EWt2k5zc9/dQPPlOVtOZK8LneEgxtv8vPKWHTporguis7gynFrz1tpAGG4befR8RHo4GYAwpXIm3twJX+WvhNuv+cAc7d0hgIXar4Fn5S12ec7syh5PSM54hw+tdVAJ+PnylfE6S/Vq8DwR9eeE4I/z0uCKga75GJS8g498irANcqIbvoE/69lx5outVDG31CnrbBfkC5KVeLNOBHi98A9LGem7KEzPMfxEcD2jcTc4so4Mdr2uuBoPF/e7BOyL/kUG8voMIH+4oe5swt3XwAXfs1njUnoiAX3fmyGoDSA7dnFiHAObv6BwKaZt/c8XTNKNhlpqMTXwTg33XdwyIB+MH6nnoAr86+XgiVo+CXnvniVQ7QtVl1SeUtxN7xMRoA1T89XzgC4NbVf89voQMQ1mdZijr5mpJnt/EF4N1m9slCEwF3C0j/trcXAJTv+c0ZddlATWeW9w0EwMWM31OoHw6wuJm/FnQrAwBB3eKTjKrgey1hfIsSAPDCgPVphS0GzB6axb3KA4C+Zr+5+wrTenT350/fMk+UhHf99LQa/uFgWdj5ZbHVOQDgKnb85Mernm46spI3xfWJAACUbjstMZVUksC6wIz/Lh7WwA8AoGs88PONxx574C5S9y8e3a6yxhx2usmYDZdU9WWAIqXmnt0w/o3QvGnN4PqxU1f/qshTlXMhae1/BjTwMVekfanTxDXJqpt8VIixOZ3eu2T8O7Us+79z1VvGjpm1Zvdfd9ym8PjM7pWfvdehVrBlX+uSDQfM+PGcWg2CULwG0+1fV03tVa+UXZiJF159c8jE6QvX/rjvWMotKSZc472Lx/d8v2TGhHe7tX41wjb1r63cpNekJQdSSdUJHqvp/l971s4aE9syqlS+XdW5oPDoJs1btenwduduPfv0H/zu+yNHjxjav+c7HVo3rR8TVTUsNCjfclK/yJb9Ji3cdiLNREUh/T93bb3kIFECKwAAAABJRU5ErkJggg==;fontFamily=Times New Roman;" parent="1" vertex="1">
          <mxGeometry x="57.06" y="260" width="105.88" height="51" as="geometry" />
        </mxCell>
        <mxCell id="th64qgsLVc2CtclvAoE8-6" value="Process Model" style="shape=image;verticalLabelPosition=bottom;labelBackgroundColor=default;verticalAlign=top;aspect=fixed;imageAspect=0;image=data:image/png,iVBORw0KGgoAAAANSUhEUgAAAWMAAACrCAAAAACWZaJQAAAAAXNCSVQI5gpbmQAAAAlwSFlzAAAH0AAAB9ABuYvnnwAAF3ZJREFUeNrtnXd8FEX/xz97LZ0EQkIzoQSiJAgEpUlHkKYC0kNvyiMgDyBVQGN5KFKUANKlSJMgQgQR+BGKyIM0ow8ldKQl0gkhpNx9f39cruX2tuRmLxtemb9ys7szn31nd3bmO9/5Dqg4KZ1QjKCYcTHj4lTMuJixbLEAdC/0v0hEJ8fV8fOKHHu3mLECjAGUPG/9M+xaMWPWjIlyjtZCL6KY2acyniZWQPdixuwZE/2BMpaMgwgqZqwE42zoLBnPbH8WM2bJONn2HP+GCsWMFWiPj8WgZ95vYzMMVVVvh4iI0sOBIt+vCDyX93sMQm+rqrdDREQjShR1xtryfSw3E4fA4+rq7RAR/aaJL9qM7X/Fwe+w+no7WVH1jM8N42nwSVJhb+dj3Sl6XhhPgdcvKuztnDaMpeeF8VTot6uwt2NsWPHJc8MYlnRHVb2d+UikYsaK9nau+XehIs5Y9f/59iVuFjP21NvlQBkKv0S2Ki8v71UGTKozXTmwf/+BKyaW8tyw+auIsVPVBUqPNw+pzZmL4moP2fyYlTw3bP7ON+XptsJaX8X+315xl/HBrjoAqNC0WbOmFQBA1/UgG3lu2PxVxJhfjpz0vzqAvvmMk3mNhOnkjOZ6oM7/2A3PC2Tzf44Y3+7NIXTqLcfMW1NDwfW+zYpxQW3+xh0LRrdp3rx5m9ELdhid6ygqjJNC4P15pnN+5ufeCElixLhANv+cBR297Jp2r44Lcoom44V6tPiH/9A/LaBfyEReQWz+tyeXBFCj38yEpKSkhJn9agAoOfl2EWT8GbgJua4O5k7g8BkLefJt/jlzAoDw+HS7rPT4cCBgTk5RYxwPzSah45s0iHdfnnybf3IZoK+zEftwX6BMctFinMhxK4TPWMFxie7Kk2/z3+yHiJ28R3ZGwG9zUWJ8Ixgzxc6ZieAb7smTb/Ofz+GdTBfHMt8BN5+Psf0MK6uhr/uMTa3QXnTcbGqPViZ35Mm3+X8J3TyBw/N0+NIFY8sMK5uhLwvGGxCaKn5Waig2uCFPvs1/Haf5TvCE7zTcOj7GthlWFkNfR6w81hJJn+5ILJdy3nJE5hRcnmx79HEDxDqMC2E4zsvY3p9MFYxXopokdjnVsNJzjDNewgeiJ32AlzL4Gdv8yaAG63JdrJF24hrU9ZyqUaiRKXpSZg2M4meczPQ5djelIDBT2pmZgUjxlKrLBu5PCaf9yRku87XHdv5kamD8MQZKPXUgPvaUqgHoJ+m8fhjA36+w+pOpgXFj7JB66g409pCoa5z+kqQTL+m5a86M7fzJ1MA4x4+TPP9zl/PL8Yyq6dZX3WY02TOs2cCPlmfly+6J6XztMQMTDruUjAjpJ0cg2TOqXka+kXvuqDzzZugyR/txIl5WPeMf8Lb0k9/GDx76DpfKdsh40sFmPy533f5IdimkqJ3xCumfPKKBWOERUavRxeH3vTr2869NHYywXbBaQcav8CaZhXyJsdJPHovBHtE3AjPyjTUcUpz9sRkYAQHbgpsmC/AmGQVkntoYVwuTpF8wEdzkXA/oa4y99j8fBDgWoTlrd3AvGivK+LhTklac6dru+BGtwwEgHMOk1zgMGrRMVV5fJM7Z/5yV//80x+7gOUQq2OLy6RW/h6cf96htJ/cj9JBeYw9MK4cKhxTVR0RUGmkOjU5+xvZOGmkorTrGdKqdndpWSWggvcYGSLrVDPo5JmUZmzTIcuzJ5UuV7A5mQa8+xkRJ9a1qjz/kvLOlVpjtzT2knPEcujxSTF/Gvs/aBurxUJDx63YHHyJAjYzJtKWa9aV7ESekVngCLxIR/RiEyD+V0Je6ZXQ9cxcYVwQZt7A7eAUVVcmY9oWZxZ4nGoAvpFb4BQYQEdHF2vBdzVaf6cyy/lUtCBvXxjH7g33zM55gd/AYaquRcdY4DWoCwDAi2oFoqRVGW8xHTwcB72Yy1HejrD3ChB6OY52T+Rn/4DCI6qFCxmdioIu7BwC3iCg7BCel1XcSIdame4UPXrnMUF/WWlvnoXLu7HwdyhaOiBvlOPQnZzuXKewfpzhj0wIfVD1CVB74iIiIRkn1V+2OUXa9kwiUTGSq70DnPIRz6QBqOhw6rLNHHHTV/lhNHMhXpqh/nNKMU9sDg9LNz4b5433DhzslpbpTnI+9h8WDjmKDPrn6Hr5uhvKQngXirGNPKNAO2mb7I2cR+MyhTAn+cQozTgxFcELeO2YZLY1BIwkdXlMjjHHMmKkTHvTJ1HchCqUAYBQRDcZUx4N/lLcQrnfE4cBUDLa3bUryj1OUccYwDq3yHsZ54ZaP1h1/fC1e29fwzz+lvF940CdP375gvHw5BMAlItqH8vl67ekbu/kBIQ1XOz4O2eWxz46xNP84JRkffwlecy2fgJ3fWvO3wuusWGVnvbDVKVN40CdL3zd6vP2YOgGdiYiMUTw+jMbTzlXFI8poYyzRP045xsbpBtSw/TPv2QkegrCrwnVdDcMQnmzBQZ8MfTnDgQlGoi+BA3n/9tAMCQgyQrHVNmcq1T9OMcbXmoEb5ULB08aokiZUVVoVNH7Ke0Rg0Cdd3/1W8F5LRPQb8uzLpjoYIQHBCNQxWRlL9o9TivH6IJTb5fqTXgeVBdqr5Mqo89DFMdeDPsn6zlZDWfOXLMtnraUzbuB2ihLYyRlOkoWxdP84ZRg/7AN0EvKC+qcKfFz6/G33QZV/XBtLXQ36pOrbFYSYv/P+7mk1uM1CyE0RADdDMIssjGX4xynC+GAl+C0VLiyzH9CRt1G+2hHoJzhwdjHok6jvKx26PrE2SrauYQtUFvZ4vlEZLUwWxnL84xRgnD1Zi3rnRYuL94F2mFOrnDZMCx+xdQr8gz5J+rKGgpvG2zVJb4CX7glUeu8lNDD3g0Hy/OPYM06pC+0UKTbiW70AzdD1T2w5T9YP1QC9bole6jjoyzRJ1nenGXxdrUR5EIWQ/S6r3B+CqAdkYSzLP4454yV+qCR1duhkHwPANekXt3bdurVx/ZpwgKGPJIuRw6Dv8HdS9f1VBRVcN5EP2oEbncVvQxrNod0DsjKW5R/HmPE/HYG+j6SXmbmotd5mGdC3XpQp9Uq7Qd+CKKM0fYkBqCf0khhHAmE/8Rz4KQwYaTWoQaZ/HFvGP5dDSbkrDIyHl0/qHRvbe9Lyw7LMgrZB3yAkSNI3S4PYp8KFHqwBRC9zPOnpsmight1aecj0j2PJOPMDDs09F8DYOuiLQYxJXN+zftB8IWqMyo3zA7w7zD9otunkHJzfwRvwi7O3+EGmfxxDxn9EwzDDSB5M5kHfM4AvslI+famvwX+rlEKz1zUEAARHRkYGAwAarnP8hEOmfxwzxsY5Xqh+gjybLtaG7+rjABqI6TsVjop/SC32/uruNbUAAG3N7qvvOxUq0z9OpA+bIZXxjdfB/SuDPJ2eDgKaAsAeYX1b/NAoTV7RF1JSUi7wP2wy/eOE6/lP+VVGSYw3l0LoT1QYaYUPAKCZkD7TZxwGPGNWJWT6xwmXdscHdX8VZ/x4INAhtVAQ3/8k78YOudb3tCe0sxnWCZn+cSLFDQHQ46oI498i4LvQVBiE0yZa76uNS30366IE03cM8vzjShw5c0MoFlUyAGBKugDjnE90qHOmMAjfHO1rd2O/u9D3e3lEnGZaL7Sy/OPM7UdgWI3X2nYfMiZu3orNvxw5c+Ox7aHMczVYZXTF+GJDaMZnFUo7cW7liEa2G+vIr2+DD5oz3tkFAbL843T1q1fwd3aMtlEflJdT91cXjAMQlkSFl4xn141tWdKlazXA4b1sxnWiojz/OCKi3AfX/jq8c+PS2dP+PbBL6/rVK/hzPA7pPfjvAT3uU2En0+WEj9qV4denm8+8Osj0j3PxdFip25yHK/HfQ9hlUkXK2cGv7132VUGmf5xIcRmWy9r9bHLxHJfepwLAuweXctFW6I+yZyzTP06kuDjzVSPOuexXdIB+QeECNiYNE2iPEfGIOWOZ/nHCpV0HgCpzHwr0j40TOQx1r19hF5LnxJiaPl5V/yXdeGf6dWQ58625aI9fsexBwZCxTP844dL6AC1/NIqM89b7onGqu4wdt3gLlOY+azo6Jsx6a+/x6zsfUJBQI8J6ZfrHCab/+g39U4JN6HgYwk64xdgakqdG3KH7OSnt0VRSKzzQYPf47HGhbw1K3GDNWJ5/nGDaki7NtpnaCL4b3GPssMVbGrylXflkc08r4xxX+jrjHdaM5fnHyUbBm5c1BNwko3uM7bZ4u4uyki/O3Gpe1zHIpb7rAdjOmLE8/zg2jInidXjzkVuMrSF5TFe6ygi3aRoKAwDsdK3va4SnM2Ysyz+OFWPaVxrVzxecsS0kD4AycyQrMw2D72YAyHKtL/fVfO7i7jOW5R/HjDFdfhkld7nTr8gLyQNA00jquMb0Pnz2UjOgr5C+E1rdZcaM5fjHsWNM6e9AO6egjO1C8hhvrwjRbJOGeCS8dxMtArYJ6nvPea7eXcYy/OMYMibTx5yIN6DUgg9IXMT3b3jvIqI0IFNQ33VvzZ+MGcvwj2PJmGiLP+rdZMD4GQxSLhwLL/MqyVY9RfSNMq9JYMlYun8cW8aUXBnl/+t+wb+Yja4iaTwMea4kyxJE9N32446xZizZP44xY7rTAt6rCl5w09UXn2Vfnh/kYIJ1kSbBYGm172WJ6RvPcCBi8ymR5h/HmjFlDwdG5xa0YMugraV4D/8j6H+Qri9Vr7vJnLFE/zjmjImWGvDG/QIW/PvIaB99ufbfiT8D06BLkKOva4G3ERBiLMk/TgHGdKgMqrGdCXZOcdB9L0vfHlTMVYCxFP84JRjT33VQQp6J4O7RjevXbzgo+XX+HNoN8vSZqkoP9CmLMYn6xynCmDJ6SvFDzUvXl3QuZWmH/V6fJcVVYzq06+Tqm4FYpRgTEdHWcgNc+Mcpw5hM0zXoIcUyZfypNQdAH9O9V68eDUIAoNZKsXHMLGjXyNaXgtK5CjLewGR6Vt4608QSiBGfMvotEvDrstTqsnt/48BQIHSR4DdvDjSrCqAvAkcUY2ycDKC3pxnTmWoIFenAXO8MVJqdr6ueteYVoLZAiIuvoFlREH0jME0pxo/fBoBOHmdM99vAsESowL3BCJjLF+dhSxj0i1xdFc9xSwukbwfqKcT4YjQAoLXnGVPuWOB9192Yb3Ro68Ksn/Uh0J//yoUct7hg+jI0hmxFGO/N+2C/VgiMiVZ7o7mrZdNfgJviutld54NufJ+oxRy3sKD6InBaCcbxlk5RrUJhTEfLoxL/Av+F0AgGkD7hi8HOvb9lnOuoEKL63sJm9oyzhlpnbasWDmO6WR9+1jHvXZs9dSfHLRO+8lc/59HvCg3mFVzfBMeVGkwYpzWxW9FUSIwpsz+4aXltwnZriMLUUPFwhbs5XT4z6SoN5rih71v0Yc545bL12/Ye2afVAAgsLMZEc7XoZH6AJ5Wz+CV1QCtxs884VHpi/3uNVnB+TFTfj+ioUN9tFjo2QgH3p2XCmH4piRqXiIia49u8AQpKii/up6yX8Yn9Z1ArvC5WVN9utFKIcTS2pwJ4VniM6UIUgv+PKAd42UREZKqNr6RcdwiBtmUGG7T43D19h1n0rvgYX0eQkU4C9wqRMT16C7r5dALALiKizQiTNrXaFhMtf36vE/tiieo76cql3V3GG9CeiDZxfzNg7LxrgdTw9sbJHAZ/ZRkLtYZEl+UjCM0bByboRUfCovoOKfUcv29uxKacZcDYnX0VNvqiNAAkE93WellsrDwRCRyyquNnIiLaqs+LiOqOvgRGk9NO91wLh4iITA/dLvo4b5J8+WHz6qP+RF9Z7pUnIkG+rM/Rl4hom8HWaBRc30I5ezrIYVwCD0gF6dpYy4N1kzrl7VLIE5Egf9ZphBFRogHjGGiYxmivuPyMM6S68iqajveyoZtIFcwhHXgiEjhlGQNxm3Z6sfEJ7CR1B0qZjC9L8gZRNhlnetuju4QgExFvRALnrJZI3OWNfzPRUQYXFWH8O15RwXNsOr18cJSF3GjzFiE8EQl4soZjuA9GMlnwfhGhpAjjP1GDVJLu/zy1FQCURTvz+NMpIgFP1hTo8T6bmAKrWUxU8DG+hjBSUcpNXty/rHniiyciAU/WHOA9RmEb3kS8MowfIYBUllaZ48/xRCTgyfoa9RkhTtPr/1GGscmLu6cyxtvwFi/j1/myPmE10UlfydmBUl7/uCl2qozxQXOEHZ6IBDxZozCP0Wf3RSQoxXic5zZplvx9L0fEG5GAJ+tNbGJT6yaUzVKKcQKaq4yxqRSuE29EAp6sMrjEpNLc6lhKSjF+6KO5qjLIb5gDPPBEJHDKuoZgVh23iGzFGFMsPlUZ4zjzOm2eiAROWYsYfajulWM0juZnvBuVTOpifBZBmUS8EQnyZzXCOiZVxqKpUUHGpggsUdmD/ArM/tk8EQkcs65yfk9YVPgD/C6Sgozpe5R7oi7GC8zBdHkjEjhkDZKz47frdDcELGPF8DA21XeY3lVBynwB1oUGPBEJrFkpOj2Lx+9JbTQzKcuYDsFwTF2Ql6CylEnTlkyiWhk7IZJpfDTe+bVRqJauKsbGmlLoLYH/LQaV/QulUkhxxs9qy9k52xPpL2+IxghI8cJGBlVNgj6JlGdM532ZmVaYWWh8RZzsr4Wb50vdTOOgTyBPMKbtOtHdhTw8oH4X/oK7+KVVRBP344KbRsCwlTzDmFZw3BZ1Nck94C+g6GQ4Ytx3V7jbFl7byFOMaTo089UFuS+4ma4GXyu9EOW+Rf1oOEoeIs8xplkcJqtrUD1bi2jeABAprYHB7jtBLjCg4XXyJGNarcfb6urCHSoPdHD66F/swyHgW7cLT48FRmWTZxnTIX9U3K8qyM8+9QFq/eeE7f1KXdAF0Ax2P/L22SgEbFJGtaCP34X60EzIUhXl1LiyAEJaDJk5e/as4W0jAfgPP+d+f2KuAdFnqRAYU860worPL/Dt2/ZuGZs9s0SPDTnul3m4LtBbMUOYmK/qbxHwWaAyezLR1V8WjRs79sN525lMLF2P5VBms3JqRf2BHw8EWt2k5zc9/dQPPlOVtOZK8LneEgxtv8vPKWHTporguis7gynFrz1tpAGG4befR8RHo4GYAwpXIm3twJX+WvhNuv+cAc7d0hgIXar4Fn5S12ec7syh5PSM54hw+tdVAJ+PnylfE6S/Vq8DwR9eeE4I/z0uCKga75GJS8g498irANcqIbvoE/69lx5outVDG31CnrbBfkC5KVeLNOBHi98A9LGem7KEzPMfxEcD2jcTc4so4Mdr2uuBoPF/e7BOyL/kUG8voMIH+4oe5swt3XwAXfs1njUnoiAX3fmyGoDSA7dnFiHAObv6BwKaZt/c8XTNKNhlpqMTXwTg33XdwyIB+MH6nnoAr86+XgiVo+CXnvniVQ7QtVl1SeUtxN7xMRoA1T89XzgC4NbVf89voQMQ1mdZijr5mpJnt/EF4N1m9slCEwF3C0j/trcXAJTv+c0ZddlATWeW9w0EwMWM31OoHw6wuJm/FnQrAwBB3eKTjKrgey1hfIsSAPDCgPVphS0GzB6axb3KA4C+Zr+5+wrTenT350/fMk+UhHf99LQa/uFgWdj5ZbHVOQDgKnb85Mernm46spI3xfWJAACUbjstMZVUksC6wIz/Lh7WwA8AoGs88PONxx574C5S9y8e3a6yxhx2usmYDZdU9WWAIqXmnt0w/o3QvGnN4PqxU1f/qshTlXMhae1/BjTwMVekfanTxDXJqpt8VIixOZ3eu2T8O7Us+79z1VvGjpm1Zvdfd9ym8PjM7pWfvdehVrBlX+uSDQfM+PGcWg2CULwG0+1fV03tVa+UXZiJF159c8jE6QvX/rjvWMotKSZc472Lx/d8v2TGhHe7tX41wjb1r63cpNekJQdSSdUJHqvp/l971s4aE9syqlS+XdW5oPDoJs1btenwduduPfv0H/zu+yNHjxjav+c7HVo3rR8TVTUsNCjfclK/yJb9Ji3cdiLNREUh/T93bb3kIFECKwAAAABJRU5ErkJggg==;opacity=70;fontFamily=Times New Roman;" parent="1" vertex="1">
          <mxGeometry x="220" y="364" width="105.88" height="51" as="geometry" />
        </mxCell>
        <mxCell id="th64qgsLVc2CtclvAoE8-7" value="- Extended model showing times, frequencies etc.&lt;div&gt;- diagnostics&lt;/div&gt;&lt;div&gt;- predictions&lt;/div&gt;&lt;div&gt;- recommendations&lt;/div&gt;" style="rounded=1;whiteSpace=wrap;html=1;fontFamily=Times New Roman;" parent="1" vertex="1">
          <mxGeometry x="417.06" y="340" width="120" height="106" as="geometry" />
        </mxCell>
        <mxCell id="th64qgsLVc2CtclvAoE8-8" value="" style="html=1;shadow=0;dashed=0;align=center;verticalAlign=middle;shape=mxgraph.arrows2.arrow;dy=0.6;dx=40;notch=0;fontFamily=Times New Roman;" parent="1" vertex="1">
          <mxGeometry x="187" y="151" width="210" height="40" as="geometry" />
        </mxCell>
        <mxCell id="th64qgsLVc2CtclvAoE8-9" value="" style="html=1;shadow=0;dashed=0;align=center;verticalAlign=middle;shape=mxgraph.arrows2.arrow;dy=0.6;dx=40;notch=0;fontFamily=Times New Roman;" parent="1" vertex="1">
          <mxGeometry x="187" y="265" width="210" height="40" as="geometry" />
        </mxCell>
        <mxCell id="th64qgsLVc2CtclvAoE8-11" value="" style="html=1;shadow=0;dashed=0;align=center;verticalAlign=middle;shape=mxgraph.arrows2.arrow;dy=0.6;dx=40;notch=0;fontFamily=Times New Roman;" parent="1" vertex="1">
          <mxGeometry x="180" y="373" width="210" height="40" as="geometry" />
        </mxCell>
        <mxCell id="th64qgsLVc2CtclvAoE8-12" value="Play-In" style="text;html=1;align=center;verticalAlign=middle;whiteSpace=wrap;rounded=0;fontFamily=Times New Roman;" parent="1" vertex="1">
          <mxGeometry x="30" y="110" width="60" height="30" as="geometry" />
        </mxCell>
        <mxCell id="th64qgsLVc2CtclvAoE8-13" value="Play-Out" style="text;html=1;align=center;verticalAlign=middle;whiteSpace=wrap;rounded=0;fontFamily=Times New Roman;" parent="1" vertex="1">
          <mxGeometry x="30" y="235" width="60" height="30" as="geometry" />
        </mxCell>
        <mxCell id="th64qgsLVc2CtclvAoE8-14" value="Replay" style="text;html=1;align=center;verticalAlign=middle;whiteSpace=wrap;rounded=0;fontFamily=Times New Roman;" parent="1" vertex="1">
          <mxGeometry x="30" y="334" width="60" height="30" as="geometry" />
        </mxCell>
      </root>
    </mxGraphModel>
  </diagram>
</mxfile>
